<svg xmlns="http://www.w3.org/2000/svg" width="960" height="540" viewBox="0 0 960 540">
  <defs><linearGradient id="sky" x1="0" y1="0" x2="0" y2="1"><stop offset="0" stop-color="#a8dcf5"/><stop offset="1" stop-color="#dff3fc"/></linearGradient></defs>
  <rect width="960" height="540" fill="url(#sky)"/>
  <g fill="#ffffff" opacity="0.9"><ellipse cx="120" cy="28" rx="38" ry="13"/><ellipse cx="98" cy="32" rx="22" ry="10"/><ellipse cx="144" cy="31" rx="24" ry="10"/></g><g fill="#ffffff" opacity="0.9"><ellipse cx="430" cy="37" rx="38" ry="13"/><ellipse cx="408" cy="41" rx="22" ry="10"/><ellipse cx="454" cy="40" rx="24" ry="10"/></g><g fill="#ffffff" opacity="0.9"><ellipse cx="760" cy="46" rx="38" ry="13"/><ellipse cx="738" cy="50" rx="22" ry="10"/><ellipse cx="784" cy="49" rx="24" ry="10"/></g>
  <path d="M0 540 L0 96 L0 96.0 L8 95.0 L16 93.9 L24 92.9 L32 91.9 L40 91.0 L48 90.1 L56 89.3 L64 88.6 L72 87.9 L80 87.3 L88 86.9 L96 86.5 L104 86.2 L112 86.1 L120 86.0 L128 86.1 L136 86.2 L144 86.5 L152 86.9 L160 87.3 L168 87.9 L176 88.6 L184 89.3 L192 90.1 L200 91.0 L208 91.9 L216 92.9 L224 93.9 L232 95.0 L240 96.0 L248 97.0 L256 98.1 L264 99.1 L272 100.1 L280 101.0 L288 101.9 L296 102.7 L304 103.4 L312 104.1 L320 104.7 L328 105.1 L336 105.5 L344 105.8 L352 105.9 L360 106.0 L368 105.9 L376 105.8 L384 105.5 L392 105.1 L400 104.7 L408 104.1 L416 103.4 L424 102.7 L432 101.9 L440 101.0 L448 100.1 L456 99.1 L464 98.1 L472 97.0 L480 96.0 L488 95.0 L496 93.9 L504 92.9 L512 91.9 L520 91.0 L528 90.1 L536 89.3 L544 88.6 L552 87.9 L560 87.3 L568 86.9 L576 86.5 L584 86.2 L592 86.1 L600 86.0 L608 86.1 L616 86.2 L624 86.5 L632 86.9 L640 87.3 L648 87.9 L656 88.6 L664 89.3 L672 90.1 L680 91.0 L688 91.9 L696 92.9 L704 93.9 L712 95.0 L720 96.0 L728 97.0 L736 98.1 L744 99.1 L752 100.1 L760 101.0 L768 101.9 L776 102.7 L784 103.4 L792 104.1 L800 104.7 L808 105.1 L816 105.5 L824 105.8 L832 105.9 L840 106.0 L848 105.9 L856 105.8 L864 105.5 L872 105.1 L880 104.7 L888 104.1 L896 103.4 L904 102.7 L912 101.9 L920 101.0 L928 100.1 L936 99.1 L944 98.1 L952 97.0 L960 96.0 L960 540z" fill="#a9d98a"/>
  <path d="M0 540 L0 114 L0 114.0 L8 112.7 L16 111.5 L24 110.4 L32 109.3 L40 108.3 L48 107.5 L56 106.9 L64 106.4 L72 106.1 L80 106.0 L88 106.1 L96 106.4 L104 106.9 L112 107.5 L120 108.3 L128 109.3 L136 110.4 L144 111.5 L152 112.7 L160 114.0 L168 115.3 L176 116.5 L184 117.6 L192 118.7 L200 119.7 L208 120.5 L216 121.1 L224 121.6 L232 121.9 L240 122.0 L248 121.9 L256 121.6 L264 121.1 L272 120.5 L280 119.7 L288 118.7 L296 117.6 L304 116.5 L312 115.3 L320 114.0 L328 112.7 L336 111.5 L344 110.4 L352 109.3 L360 108.3 L368 107.5 L376 106.9 L384 106.4 L392 106.1 L400 106.0 L408 106.1 L416 106.4 L424 106.9 L432 107.5 L440 108.3 L448 109.3 L456 110.4 L464 111.5 L472 112.7 L480 114.0 L488 115.3 L496 116.5 L504 117.6 L512 118.7 L520 119.7 L528 120.5 L536 121.1 L544 121.6 L552 121.9 L560 122.0 L568 121.9 L576 121.6 L584 121.1 L592 120.5 L600 119.7 L608 118.7 L616 117.6 L624 116.5 L632 115.3 L640 114.0 L648 112.7 L656 111.5 L664 110.4 L672 109.3 L680 108.3 L688 107.5 L696 106.9 L704 106.4 L712 106.1 L720 106.0 L728 106.1 L736 106.4 L744 106.9 L752 107.5 L760 108.3 L768 109.3 L776 110.4 L784 111.5 L792 112.7 L800 114.0 L808 115.3 L816 116.5 L824 117.6 L832 118.7 L840 119.7 L848 120.5 L856 121.1 L864 121.6 L872 121.9 L880 122.0 L888 121.9 L896 121.6 L904 121.1 L912 120.5 L920 119.7 L928 118.7 L936 117.6 L944 116.5 L952 115.3 L960 114.0 L960 540z" fill="#94cf6f"/>
  <rect x="0" y="122" width="960" height="418" fill="#8ccc66"/>
  <rect x="0" y="126" width="960" height="22" fill="#80c25a"/><rect x="0" y="170" width="960" height="22" fill="#86c860"/><rect x="0" y="214" width="960" height="22" fill="#80c25a"/><rect x="0" y="258" width="960" height="22" fill="#86c860"/><rect x="0" y="302" width="960" height="22" fill="#80c25a"/><rect x="0" y="346" width="960" height="22" fill="#86c860"/><rect x="0" y="390" width="960" height="22" fill="#80c25a"/><rect x="0" y="434" width="960" height="22" fill="#86c860"/><rect x="0" y="478" width="960" height="22" fill="#80c25a"/><rect x="0" y="522" width="960" height="22" fill="#86c860"/>
  <path d="M-8 198 q3 -12 5 -2 q2 -14 4 0 q3 -10 5 2" fill="none" stroke="#5e9e3c" stroke-width="2.2" stroke-linecap="round"/><path d="M952 198 q3 -12 5 -2 q2 -14 4 0 q3 -10 5 2" fill="none" stroke="#5e9e3c" stroke-width="2.2" stroke-linecap="round"/><path d="M121 139 q3 -12 5 -2 q2 -14 4 0 q3 -10 5 2" fill="none" stroke="#5e9e3c" stroke-width="2.2" stroke-linecap="round"/><path d="M747 236 q3 -12 5 -2 q2 -14 4 0 q3 -10 5 2" fill="none" stroke="#5e9e3c" stroke-width="2.2" stroke-linecap="round"/><path d="M116 251 q3 -12 5 -2 q2 -14 4 0 q3 -10 5 2" fill="none" stroke="#5e9e3c" stroke-width="2.2" stroke-linecap="round"/><path d="M283 306 q3 -12 5 -2 q2 -14 4 0 q3 -10 5 2" fill="none" stroke="#5e9e3c" stroke-width="2.2" stroke-linecap="round"/><path d="M188 320 q3 -12 5 -2 q2 -14 4 0 q3 -10 5 2" fill="none" stroke="#5e9e3c" stroke-width="2.2" stroke-linecap="round"/><path d="M897 463 q3 -12 5 -2 q2 -14 4 0 q3 -10 5 2" fill="none" stroke="#5e9e3c" stroke-width="2.2" stroke-linecap="round"/><path d="M264 417 q3 -12 5 -2 q2 -14 4 0 q3 -10 5 2" fill="none" stroke="#5e9e3c" stroke-width="2.2" stroke-linecap="round"/><path d="M95 209 q3 -12 5 -2 q2 -14 4 0 q3 -10 5 2" fill="none" stroke="#5e9e3c" stroke-width="2.2" stroke-linecap="round"/><path d="M186 374 q3 -12 5 -2 q2 -14 4 0 q3 -10 5 2" fill="none" stroke="#5e9e3c" stroke-width="2.2" stroke-linecap="round"/><path d="M11 326 q3 -12 5 -2 q2 -14 4 0 q3 -10 5 2" fill="none" stroke="#5e9e3c" stroke-width="2.2" stroke-linecap="round"/><path d="M122 266 q3 -12 5 -2 q2 -14 4 0 q3 -10 5 2" fill="none" stroke="#5e9e3c" stroke-width="2.2" stroke-linecap="round"/><path d="M288 391 q3 -12 5 -2 q2 -14 4 0 q3 -10 5 2" fill="none" stroke="#5e9e3c" stroke-width="2.2" stroke-linecap="round"/><path d="M191 409 q3 -12 5 -2 q2 -14 4 0 q3 -10 5 2" fill="none" stroke="#5e9e3c" stroke-width="2.2" stroke-linecap="round"/><path d="M937 462 q3 -12 5 -2 q2 -14 4 0 q3 -10 5 2" fill="none" stroke="#5e9e3c" stroke-width="2.2" stroke-linecap="round"/><path d="M806 251 q3 -12 5 -2 q2 -14 4 0 q3 -10 5 2" fill="none" stroke="#5e9e3c" stroke-width="2.2" stroke-linecap="round"/><path d="M279 191 q3 -12 5 -2 q2 -14 4 0 q3 -10 5 2" fill="none" stroke="#5e9e3c" stroke-width="2.2" stroke-linecap="round"/><path d="M631 482 q3 -12 5 -2 q2 -14 4 0 q3 -10 5 2" fill="none" stroke="#5e9e3c" stroke-width="2.2" stroke-linecap="round"/><path d="M168 197 q3 -12 5 -2 q2 -14 4 0 q3 -10 5 2" fill="none" stroke="#5e9e3c" stroke-width="2.2" stroke-linecap="round"/><path d="M746 439 q3 -12 5 -2 q2 -14 4 0 q3 -10 5 2" fill="none" stroke="#5e9e3c" stroke-width="2.2" stroke-linecap="round"/><path d="M884 365 q3 -12 5 -2 q2 -14 4 0 q3 -10 5 2" fill="none" stroke="#5e9e3c" stroke-width="2.2" stroke-linecap="round"/><path d="M322 168 q3 -12 5 -2 q2 -14 4 0 q3 -10 5 2" fill="none" stroke="#5e9e3c" stroke-width="2.2" stroke-linecap="round"/><path d="M603 429 q3 -12 5 -2 q2 -14 4 0 q3 -10 5 2" fill="none" stroke="#5e9e3c" stroke-width="2.2" stroke-linecap="round"/><path d="M145 228 q3 -12 5 -2 q2 -14 4 0 q3 -10 5 2" fill="none" stroke="#5e9e3c" stroke-width="2.2" stroke-linecap="round"/><path d="M515 323 q3 -12 5 -2 q2 -14 4 0 q3 -10 5 2" fill="none" stroke="#5e9e3c" stroke-width="2.2" stroke-linecap="round"/><path d="M372 319 q3 -12 5 -2 q2 -14 4 0 q3 -10 5 2" fill="none" stroke="#5e9e3c" stroke-width="2.2" stroke-linecap="round"/><path d="M670 372 q3 -12 5 -2 q2 -14 4 0 q3 -10 5 2" fill="none" stroke="#5e9e3c" stroke-width="2.2" stroke-linecap="round"/><path d="M589 528 q3 -12 5 -2 q2 -14 4 0 q3 -10 5 2" fill="none" stroke="#5e9e3c" stroke-width="2.2" stroke-linecap="round"/><path d="M641 350 q3 -12 5 -2 q2 -14 4 0 q3 -10 5 2" fill="none" stroke="#5e9e3c" stroke-width="2.2" stroke-linecap="round"/><path d="M780 315 q3 -12 5 -2 q2 -14 4 0 q3 -10 5 2" fill="none" stroke="#5e9e3c" stroke-width="2.2" stroke-linecap="round"/><path d="M675 179 q3 -12 5 -2 q2 -14 4 0 q3 -10 5 2" fill="none" stroke="#5e9e3c" stroke-width="2.2" stroke-linecap="round"/><path d="M367 395 q3 -12 5 -2 q2 -14 4 0 q3 -10 5 2" fill="none" stroke="#5e9e3c" stroke-width="2.2" stroke-linecap="round"/><path d="M644 473 q3 -12 5 -2 q2 -14 4 0 q3 -10 5 2" fill="none" stroke="#5e9e3c" stroke-width="2.2" stroke-linecap="round"/><path d="M364 206 q3 -12 5 -2 q2 -14 4 0 q3 -10 5 2" fill="none" stroke="#5e9e3c" stroke-width="2.2" stroke-linecap="round"/><path d="M708 439 q3 -12 5 -2 q2 -14 4 0 q3 -10 5 2" fill="none" stroke="#5e9e3c" stroke-width="2.2" stroke-linecap="round"/><path d="M8 222 q3 -12 5 -2 q2 -14 4 0 q3 -10 5 2" fill="none" stroke="#5e9e3c" stroke-width="2.2" stroke-linecap="round"/><path d="M616 503 q3 -12 5 -2 q2 -14 4 0 q3 -10 5 2" fill="none" stroke="#5e9e3c" stroke-width="2.2" stroke-linecap="round"/><path d="M677 194 q3 -12 5 -2 q2 -14 4 0 q3 -10 5 2" fill="none" stroke="#5e9e3c" stroke-width="2.2" stroke-linecap="round"/><path d="M552 216 q3 -12 5 -2 q2 -14 4 0 q3 -10 5 2" fill="none" stroke="#5e9e3c" stroke-width="2.2" stroke-linecap="round"/><path d="M257 327 q3 -12 5 -2 q2 -14 4 0 q3 -10 5 2" fill="none" stroke="#5e9e3c" stroke-width="2.2" stroke-linecap="round"/><path d="M825 139 q3 -12 5 -2 q2 -14 4 0 q3 -10 5 2" fill="none" stroke="#5e9e3c" stroke-width="2.2" stroke-linecap="round"/><path d="M358 342 q3 -12 5 -2 q2 -14 4 0 q3 -10 5 2" fill="none" stroke="#5e9e3c" stroke-width="2.2" stroke-linecap="round"/><path d="M796 179 q3 -12 5 -2 q2 -14 4 0 q3 -10 5 2" fill="none" stroke="#5e9e3c" stroke-width="2.2" stroke-linecap="round"/><path d="M635 297 q3 -12 5 -2 q2 -14 4 0 q3 -10 5 2" fill="none" stroke="#5e9e3c" stroke-width="2.2" stroke-linecap="round"/><path d="M940 264 q3 -12 5 -2 q2 -14 4 0 q3 -10 5 2" fill="none" stroke="#5e9e3c" stroke-width="2.2" stroke-linecap="round"/><path d="M565 275 q3 -12 5 -2 q2 -14 4 0 q3 -10 5 2" fill="none" stroke="#5e9e3c" stroke-width="2.2" stroke-linecap="round"/><path d="M399 262 q3 -12 5 -2 q2 -14 4 0 q3 -10 5 2" fill="none" stroke="#5e9e3c" stroke-width="2.2" stroke-linecap="round"/><path d="M171 256 q3 -12 5 -2 q2 -14 4 0 q3 -10 5 2" fill="none" stroke="#5e9e3c" stroke-width="2.2" stroke-linecap="round"/><path d="M846 213 q3 -12 5 -2 q2 -14 4 0 q3 -10 5 2" fill="none" stroke="#5e9e3c" stroke-width="2.2" stroke-linecap="round"/><path d="M437 518 q3 -12 5 -2 q2 -14 4 0 q3 -10 5 2" fill="none" stroke="#5e9e3c" stroke-width="2.2" stroke-linecap="round"/><path d="M851 227 q3 -12 5 -2 q2 -14 4 0 q3 -10 5 2" fill="none" stroke="#5e9e3c" stroke-width="2.2" stroke-linecap="round"/><path d="M849 246 q3 -12 5 -2 q2 -14 4 0 q3 -10 5 2" fill="none" stroke="#5e9e3c" stroke-width="2.2" stroke-linecap="round"/><path d="M654 420 q3 -12 5 -2 q2 -14 4 0 q3 -10 5 2" fill="none" stroke="#5e9e3c" stroke-width="2.2" stroke-linecap="round"/><path d="M239 449 q3 -12 5 -2 q2 -14 4 0 q3 -10 5 2" fill="none" stroke="#5e9e3c" stroke-width="2.2" stroke-linecap="round"/><path d="M786 516 q3 -12 5 -2 q2 -14 4 0 q3 -10 5 2" fill="none" stroke="#5e9e3c" stroke-width="2.2" stroke-linecap="round"/><path d="M884 514 q3 -12 5 -2 q2 -14 4 0 q3 -10 5 2" fill="none" stroke="#5e9e3c" stroke-width="2.2" stroke-linecap="round"/><path d="M290 285 q3 -12 5 -2 q2 -14 4 0 q3 -10 5 2" fill="none" stroke="#5e9e3c" stroke-width="2.2" stroke-linecap="round"/><path d="M949 218 q3 -12 5 -2 q2 -14 4 0 q3 -10 5 2" fill="none" stroke="#5e9e3c" stroke-width="2.2" stroke-linecap="round"/><path d="M-11 218 q3 -12 5 -2 q2 -14 4 0 q3 -10 5 2" fill="none" stroke="#5e9e3c" stroke-width="2.2" stroke-linecap="round"/><path d="M793 178 q3 -12 5 -2 q2 -14 4 0 q3 -10 5 2" fill="none" stroke="#5e9e3c" stroke-width="2.2" stroke-linecap="round"/><path d="M139 187 q3 -12 5 -2 q2 -14 4 0 q3 -10 5 2" fill="none" stroke="#5e9e3c" stroke-width="2.2" stroke-linecap="round"/><path d="M168 369 q3 -12 5 -2 q2 -14 4 0 q3 -10 5 2" fill="none" stroke="#5e9e3c" stroke-width="2.2" stroke-linecap="round"/><path d="M61 508 q3 -12 5 -2 q2 -14 4 0 q3 -10 5 2" fill="none" stroke="#5e9e3c" stroke-width="2.2" stroke-linecap="round"/><path d="M611 150 q3 -12 5 -2 q2 -14 4 0 q3 -10 5 2" fill="none" stroke="#5e9e3c" stroke-width="2.2" stroke-linecap="round"/><path d="M481 435 q3 -12 5 -2 q2 -14 4 0 q3 -10 5 2" fill="none" stroke="#5e9e3c" stroke-width="2.2" stroke-linecap="round"/><path d="M320 381 q3 -12 5 -2 q2 -14 4 0 q3 -10 5 2" fill="none" stroke="#5e9e3c" stroke-width="2.2" stroke-linecap="round"/><path d="M268 392 q3 -12 5 -2 q2 -14 4 0 q3 -10 5 2" fill="none" stroke="#5e9e3c" stroke-width="2.2" stroke-linecap="round"/><path d="M576 275 q3 -12 5 -2 q2 -14 4 0 q3 -10 5 2" fill="none" stroke="#5e9e3c" stroke-width="2.2" stroke-linecap="round"/><path d="M241 256 q3 -12 5 -2 q2 -14 4 0 q3 -10 5 2" fill="none" stroke="#5e9e3c" stroke-width="2.2" stroke-linecap="round"/><path d="M946 349 q3 -12 5 -2 q2 -14 4 0 q3 -10 5 2" fill="none" stroke="#5e9e3c" stroke-width="2.2" stroke-linecap="round"/><path d="M-14 349 q3 -12 5 -2 q2 -14 4 0 q3 -10 5 2" fill="none" stroke="#5e9e3c" stroke-width="2.2" stroke-linecap="round"/><path d="M81 252 q3 -12 5 -2 q2 -14 4 0 q3 -10 5 2" fill="none" stroke="#5e9e3c" stroke-width="2.2" stroke-linecap="round"/>
  <g><circle cx="153" cy="503" r="2.6" fill="#ffffff"/><circle cx="159" cy="503" r="2.6" fill="#ffffff"/><circle cx="156" cy="500" r="2.6" fill="#ffffff"/><circle cx="156" cy="506" r="2.6" fill="#ffffff"/><circle cx="156" cy="503" r="2" fill="#f2a900"/></g><g><circle cx="331" cy="359" r="2.6" fill="#ffe066"/><circle cx="337" cy="359" r="2.6" fill="#ffe066"/><circle cx="334" cy="356" r="2.6" fill="#ffe066"/><circle cx="334" cy="362" r="2.6" fill="#ffe066"/><circle cx="334" cy="359" r="2" fill="#f2a900"/></g><g><circle cx="572" cy="457" r="2.6" fill="#ffb3c7"/><circle cx="578" cy="457" r="2.6" fill="#ffb3c7"/><circle cx="575" cy="454" r="2.6" fill="#ffb3c7"/><circle cx="575" cy="460" r="2.6" fill="#ffb3c7"/><circle cx="575" cy="457" r="2" fill="#f2a900"/></g><g><circle cx="385" cy="360" r="2.6" fill="#ffffff"/><circle cx="391" cy="360" r="2.6" fill="#ffffff"/><circle cx="388" cy="357" r="2.6" fill="#ffffff"/><circle cx="388" cy="363" r="2.6" fill="#ffffff"/><circle cx="388" cy="360" r="2" fill="#f2a900"/></g><g><circle cx="46" cy="424" r="2.6" fill="#ffe066"/><circle cx="52" cy="424" r="2.6" fill="#ffe066"/><circle cx="49" cy="421" r="2.6" fill="#ffe066"/><circle cx="49" cy="427" r="2.6" fill="#ffe066"/><circle cx="49" cy="424" r="2" fill="#f2a900"/></g><g><circle cx="128" cy="171" r="2.6" fill="#ffb3c7"/><circle cx="134" cy="171" r="2.6" fill="#ffb3c7"/><circle cx="131" cy="168" r="2.6" fill="#ffb3c7"/><circle cx="131" cy="174" r="2.6" fill="#ffb3c7"/><circle cx="131" cy="171" r="2" fill="#f2a900"/></g><g><circle cx="21" cy="451" r="2.6" fill="#ffffff"/><circle cx="27" cy="451" r="2.6" fill="#ffffff"/><circle cx="24" cy="448" r="2.6" fill="#ffffff"/><circle cx="24" cy="454" r="2.6" fill="#ffffff"/><circle cx="24" cy="451" r="2" fill="#f2a900"/></g><g><circle cx="633" cy="185" r="2.6" fill="#ffe066"/><circle cx="639" cy="185" r="2.6" fill="#ffe066"/><circle cx="636" cy="182" r="2.6" fill="#ffe066"/><circle cx="636" cy="188" r="2.6" fill="#ffe066"/><circle cx="636" cy="185" r="2" fill="#f2a900"/></g><g><circle cx="36" cy="388" r="2.6" fill="#ffb3c7"/><circle cx="42" cy="388" r="2.6" fill="#ffb3c7"/><circle cx="39" cy="385" r="2.6" fill="#ffb3c7"/><circle cx="39" cy="391" r="2.6" fill="#ffb3c7"/><circle cx="39" cy="388" r="2" fill="#f2a900"/></g><g><circle cx="879" cy="251" r="2.6" fill="#ffffff"/><circle cx="885" cy="251" r="2.6" fill="#ffffff"/><circle cx="882" cy="248" r="2.6" fill="#ffffff"/><circle cx="882" cy="254" r="2.6" fill="#ffffff"/><circle cx="882" cy="251" r="2" fill="#f2a900"/></g><g><circle cx="907" cy="313" r="2.6" fill="#ffe066"/><circle cx="913" cy="313" r="2.6" fill="#ffe066"/><circle cx="910" cy="310" r="2.6" fill="#ffe066"/><circle cx="910" cy="316" r="2.6" fill="#ffe066"/><circle cx="910" cy="313" r="2" fill="#f2a900"/></g><g><circle cx="327" cy="483" r="2.6" fill="#ffb3c7"/><circle cx="333" cy="483" r="2.6" fill="#ffb3c7"/><circle cx="330" cy="480" r="2.6" fill="#ffb3c7"/><circle cx="330" cy="486" r="2.6" fill="#ffb3c7"/><circle cx="330" cy="483" r="2" fill="#f2a900"/></g><g><circle cx="651" cy="392" r="2.6" fill="#ffffff"/><circle cx="657" cy="392" r="2.6" fill="#ffffff"/><circle cx="654" cy="389" r="2.6" fill="#ffffff"/><circle cx="654" cy="395" r="2.6" fill="#ffffff"/><circle cx="654" cy="392" r="2" fill="#f2a900"/></g><g><circle cx="224" cy="303" r="2.6" fill="#ffe066"/><circle cx="230" cy="303" r="2.6" fill="#ffe066"/><circle cx="227" cy="300" r="2.6" fill="#ffe066"/><circle cx="227" cy="306" r="2.6" fill="#ffe066"/><circle cx="227" cy="303" r="2" fill="#f2a900"/></g><g><circle cx="707" cy="471" r="2.6" fill="#ffb3c7"/><circle cx="713" cy="471" r="2.6" fill="#ffb3c7"/><circle cx="710" cy="468" r="2.6" fill="#ffb3c7"/><circle cx="710" cy="474" r="2.6" fill="#ffb3c7"/><circle cx="710" cy="471" r="2" fill="#f2a900"/></g><g><circle cx="140" cy="244" r="2.6" fill="#ffffff"/><circle cx="146" cy="244" r="2.6" fill="#ffffff"/><circle cx="143" cy="241" r="2.6" fill="#ffffff"/><circle cx="143" cy="247" r="2.6" fill="#ffffff"/><circle cx="143" cy="244" r="2" fill="#f2a900"/></g><g><circle cx="201" cy="489" r="2.6" fill="#ffe066"/><circle cx="207" cy="489" r="2.6" fill="#ffe066"/><circle cx="204" cy="486" r="2.6" fill="#ffe066"/><circle cx="204" cy="492" r="2.6" fill="#ffe066"/><circle cx="204" cy="489" r="2" fill="#f2a900"/></g><g><circle cx="674" cy="441" r="2.6" fill="#ffb3c7"/><circle cx="680" cy="441" r="2.6" fill="#ffb3c7"/><circle cx="677" cy="438" r="2.6" fill="#ffb3c7"/><circle cx="677" cy="444" r="2.6" fill="#ffb3c7"/><circle cx="677" cy="441" r="2" fill="#f2a900"/></g><g><circle cx="67" cy="239" r="2.6" fill="#ffffff"/><circle cx="73" cy="239" r="2.6" fill="#ffffff"/><circle cx="70" cy="236" r="2.6" fill="#ffffff"/><circle cx="70" cy="242" r="2.6" fill="#ffffff"/><circle cx="70" cy="239" r="2" fill="#f2a900"/></g><g><circle cx="761" cy="502" r="2.6" fill="#ffe066"/><circle cx="767" cy="502" r="2.6" fill="#ffe066"/><circle cx="764" cy="499" r="2.6" fill="#ffe066"/><circle cx="764" cy="505" r="2.6" fill="#ffe066"/><circle cx="764" cy="502" r="2" fill="#f2a900"/></g><g><circle cx="370" cy="474" r="2.6" fill="#ffb3c7"/><circle cx="376" cy="474" r="2.6" fill="#ffb3c7"/><circle cx="373" cy="471" r="2.6" fill="#ffb3c7"/><circle cx="373" cy="477" r="2.6" fill="#ffb3c7"/><circle cx="373" cy="474" r="2" fill="#f2a900"/></g><g><circle cx="395" cy="284" r="2.6" fill="#ffffff"/><circle cx="401" cy="284" r="2.6" fill="#ffffff"/><circle cx="398" cy="281" r="2.6" fill="#ffffff"/><circle cx="398" cy="287" r="2.6" fill="#ffffff"/><circle cx="398" cy="284" r="2" fill="#f2a900"/></g><g><circle cx="611" cy="210" r="2.6" fill="#ffe066"/><circle cx="617" cy="210" r="2.6" fill="#ffe066"/><circle cx="614" cy="207" r="2.6" fill="#ffe066"/><circle cx="614" cy="213" r="2.6" fill="#ffe066"/><circle cx="614" cy="210" r="2" fill="#f2a900"/></g><g><circle cx="295" cy="459" r="2.6" fill="#ffb3c7"/><circle cx="301" cy="459" r="2.6" fill="#ffb3c7"/><circle cx="298" cy="456" r="2.6" fill="#ffb3c7"/><circle cx="298" cy="462" r="2.6" fill="#ffb3c7"/><circle cx="298" cy="459" r="2" fill="#f2a900"/></g><g><circle cx="0" cy="400" r="2.6" fill="#ffffff"/><circle cx="6" cy="400" r="2.6" fill="#ffffff"/><circle cx="3" cy="397" r="2.6" fill="#ffffff"/><circle cx="3" cy="403" r="2.6" fill="#ffffff"/><circle cx="3" cy="400" r="2" fill="#f2a900"/></g><g><circle cx="960" cy="400" r="2.6" fill="#ffffff"/><circle cx="966" cy="400" r="2.6" fill="#ffffff"/><circle cx="963" cy="397" r="2.6" fill="#ffffff"/><circle cx="963" cy="403" r="2.6" fill="#ffffff"/><circle cx="963" cy="400" r="2" fill="#f2a900"/></g><g><circle cx="295" cy="201" r="2.6" fill="#ffe066"/><circle cx="301" cy="201" r="2.6" fill="#ffe066"/><circle cx="298" cy="198" r="2.6" fill="#ffe066"/><circle cx="298" cy="204" r="2.6" fill="#ffe066"/><circle cx="298" cy="201" r="2" fill="#f2a900"/></g>
</svg>
