<svg xmlns="http://www.w3.org/2000/svg" width="425" height="223" viewBox="0 0 425 223">
  
    <text x="212" y="62" text-anchor="middle" font-family="Quicksand, sans-serif" font-weight="700" fill="#ffffff" stroke="#2b2b2b" stroke-width="10" stroke-linejoin="round" paint-order="stroke">
      <tspan font-size="62">feed </tspan><tspan font-size="34" dy="-7">THE</tspan><tspan font-size="62" dy="7"> cow</tspan>
    </text>
    <text x="212" y="62" text-anchor="middle" font-family="Quicksand, sans-serif" font-weight="700" fill="#ffffff" stroke="none" stroke-width="0" stroke-linejoin="round" paint-order="stroke">
      <tspan font-size="62">feed </tspan><tspan font-size="34" dy="-7">THE</tspan><tspan font-size="62" dy="7"> cow</tspan>
    </text>
  <ellipse cx="212" cy="210" rx="78" ry="9" fill="#c9b237" opacity="0.7"/>
  <g transform="translate(132 92) scale(1)">
  <g transform="translate(0 1) rotate(-2 76 48)">
    
    <polyline points="102.0 62.0 99.1 75.7 83.2 77.9" fill="none" stroke="#2b2b2b" stroke-width="12" stroke-linecap="round" stroke-linejoin="round"/>
    <polyline points="102.0 62.0 99.1 75.7 83.2 77.9" fill="none" stroke="#e4e4e4" stroke-width="6" stroke-linecap="round" stroke-linejoin="round"/>
    <circle cx="83.2" cy="77.9" r="5" fill="#2b2b2b"/>
    
    <polyline points="56.0 62.0 63.0 74.1 64.7 90.0" fill="none" stroke="#2b2b2b" stroke-width="12" stroke-linecap="round" stroke-linejoin="round"/>
    <polyline points="56.0 62.0 63.0 74.1 64.7 90.0" fill="none" stroke="#e4e4e4" stroke-width="6" stroke-linecap="round" stroke-linejoin="round"/>
    <circle cx="64.7" cy="90.0" r="5" fill="#2b2b2b"/>
    
    <path d="M36 40 Q24 38 16 50" fill="none" stroke="#2b2b2b" stroke-width="3.5" stroke-linecap="round"/>
    <ellipse cx="16" cy="53" rx="4" ry="6" fill="#2b2b2b" transform="rotate(20 16 53)"/>
    
    <ellipse cx="76" cy="48" rx="46" ry="24" fill="#ffffff" stroke="#2b2b2b" stroke-width="3"/>
    <clipPath id="hide-load"><ellipse cx="76" cy="48" rx="44.5" ry="22.5"/></clipPath>
    <g clip-path="url(#hide-load)" fill="#2f2f2f">
      <path d="M44 24 q14 -2 18 10 q-4 12 -18 8 q-10 -8 0 -18z"/>
      <path d="M78 52 q12 -6 20 4 q2 12 -12 14 q-12 -4 -8 -18z"/>
      <path d="M100 26 q10 2 12 12 q-8 4 -14 -2z"/>
    </g>
    <ellipse cx="80" cy="70" rx="9" ry="5" fill="#f4a6b8" stroke="#2b2b2b" stroke-width="2.5"/>
    
    <polyline points="94.0 62.0 95.0 76.0 80.1 82.0" fill="none" stroke="#2b2b2b" stroke-width="12" stroke-linecap="round" stroke-linejoin="round"/>
    <polyline points="94.0 62.0 95.0 76.0 80.1 82.0" fill="none" stroke="#ffffff" stroke-width="6" stroke-linecap="round" stroke-linejoin="round"/>
    <circle cx="80.1" cy="82.0" r="5" fill="#2b2b2b"/>
    
    <polyline points="48.0 62.0 53.7 74.8 58.1 90.2" fill="none" stroke="#2b2b2b" stroke-width="12" stroke-linecap="round" stroke-linejoin="round"/>
    <polyline points="48.0 62.0 53.7 74.8 58.1 90.2" fill="none" stroke="#ffffff" stroke-width="6" stroke-linecap="round" stroke-linejoin="round"/>
    <circle cx="58.1" cy="90.2" r="5" fill="#2b2b2b"/>
    
    <path d="M118 22 q-2 -9 4 -12" fill="none" stroke="#2b2b2b" stroke-width="6" stroke-linecap="round"/>
    <path d="M118 22 q-2 -9 4 -12" fill="none" stroke="#f1dfa8" stroke-width="3" stroke-linecap="round"/>
    <path d="M133 21 q3 -9 -2 -13" fill="none" stroke="#2b2b2b" stroke-width="6" stroke-linecap="round"/>
    <path d="M133 21 q3 -9 -2 -13" fill="none" stroke="#f1dfa8" stroke-width="3" stroke-linecap="round"/>
    <ellipse cx="108" cy="27" rx="10" ry="5.5" fill="#ffffff" stroke="#2b2b2b" stroke-width="3" transform="rotate(-25 108 27)"/>
    <ellipse cx="108" cy="27" rx="5" ry="2.5" fill="#f4a6b8" transform="rotate(-25 108 27)"/>
    <ellipse cx="127" cy="35" rx="19" ry="17" fill="#ffffff" stroke="#2b2b2b" stroke-width="3"/>
    <path d="M118 22 q8 -4 12 3 q-6 6 -12 -3z" fill="#2f2f2f"/>
    <ellipse cx="141" cy="45" rx="12" ry="9" fill="#f4a6b8" stroke="#2b2b2b" stroke-width="3"/>
    <ellipse cx="137" cy="44" rx="1.8" ry="2.6" fill="#2b2b2b"/>
    <ellipse cx="145" cy="44" rx="1.8" ry="2.6" fill="#2b2b2b"/>
    
    <circle cx="129" cy="31" r="4" fill="#2b2b2b"/>
    <circle cx="130.4" cy="29.6" r="1.4" fill="#ffffff"/>
  </g></g>
</svg>
